<svg width="24" height="24" viewBox="0 0 24 24" fill="none" xmlns="http://www.w3.org/2000/svg">
<path fill-rule="evenodd" clip-rule="evenodd" d="M3.97036 8.75746C3.83641 8.22166 3.29348 7.8959 2.75768 8.02985C2.22189 8.1638 1.89613 8.70673 2.03008 9.24253C2.13381 9.65746 2.32637 10.1129 2.59567 10.5842L1.55301 11.1056C1.05903 11.3526 0.858803 11.9532 1.10579 12.4472C1.35278 12.9412 1.95345 13.1414 2.44743 12.8944L3.79625 12.22C4.20606 12.6751 4.67351 13.1192 5.18802 13.5309C5.37525 13.6806 5.57024 13.8274 5.77274 13.97L4.70022 15.4C4.36885 15.8418 4.45839 16.4686 4.90022 16.8C5.34205 17.1314 5.96885 17.0418 6.30022 16.6L7.51271 14.9833C8.55471 15.4733 9.72469 15.8275 11.0002 15.9516V17.5C11.0002 18.0523 11.4479 18.5 12.0002 18.5C12.5525 18.5 13.0002 18.0523 13.0002 17.5V15.9516C14.2758 15.8275 15.4457 15.4733 16.4877 14.9833L17.7002 16.6C18.0316 17.0418 18.6584 17.1314 19.1002 16.8C19.542 16.4686 19.6316 15.8418 19.3002 15.4L18.2277 13.97C18.4302 13.8274 18.6252 13.6806 18.8124 13.5309C19.3269 13.1192 19.7944 12.6751 20.2042 12.22L21.553 12.8944C22.047 13.1414 22.6477 12.9412 22.8946 12.4472C23.1416 11.9532 22.9414 11.3526 22.4474 11.1056L21.4048 10.5842C21.6741 10.1129 21.8666 9.65746 21.9704 9.24253C22.1043 8.70673 21.7785 8.1638 21.2428 8.02985C20.707 7.8959 20.164 8.22166 20.0301 8.75746C19.8511 9.47318 19.0232 10.801 17.563 11.9691C16.1369 13.11 14.2257 14 12.0002 14C9.77469 14 7.86354 13.11 6.43741 11.9691C4.97727 10.801 4.14929 9.47318 3.97036 8.75746Z" fill="black" fill-opacity="0.88"/>
</svg>
