<svg width="24" height="24" viewBox="0 0 24 24" fill="none" xmlns="http://www.w3.org/2000/svg">
<path fill-rule="evenodd" clip-rule="evenodd" d="M6.5 11.5C6.5 8.46243 8.96243 6 12 6C15.0376 6 17.5 8.46243 17.5 11.5C17.5 13.0676 16.8455 14.4806 15.7921 15.4837C15.3415 15.9128 14.8556 16.4139 14.4463 17H9.55367C9.14436 16.4139 8.65849 15.9128 8.20789 15.4837C7.15449 14.4806 6.5 13.0676 6.5 11.5ZM8.09268 18.421C8.11509 18.4692 8.14122 18.5153 8.17072 18.559C8.29637 18.7928 8.3909 19.0309 8.44934 19.277L8.92417 21.2765C9.061 22.2605 9.9036 23 10.905 23H13.095C14.0964 23 14.939 22.2605 15.0758 21.2765L15.5507 19.277C15.6091 19.0309 15.7036 18.7928 15.8293 18.559C15.8588 18.5154 15.8849 18.4692 15.9073 18.421C16.2047 17.9197 16.6427 17.4355 17.1713 16.9321C18.6046 15.5672 19.5 13.6373 19.5 11.5C19.5 7.35786 16.1421 4 12 4C7.85786 4 4.5 7.35786 4.5 11.5C4.5 13.6373 5.39535 15.5672 6.82868 16.9321C7.35727 17.4354 7.79524 17.9197 8.09268 18.421ZM13.5608 19L13.1171 20.8685C13.1068 20.9118 13.0994 20.9557 13.095 21H10.905C10.9006 20.9557 10.8932 20.9118 10.8829 20.8685L10.4392 19H13.5608Z" fill="black" fill-opacity="0.88"/>
</svg>
